<svg width="39" height="39" viewBox="0 0 39 39" fill="none" xmlns="http://www.w3.org/2000/svg">
<path d="M15.542 18.464L17.3705 19.3991L17.7371 16.3897L15.542 18.464Z" fill="black"/>
<path d="M29.861 35.4465C30.227 35.2063 30.4315 34.8139 30.4551 34.4057L30.4688 34.405L30.184 29.0589L35.4732 28.7728L35.4729 28.7624C35.8722 28.695 36.2371 28.4478 36.4344 28.056C36.6319 27.6636 36.6149 27.2208 36.4325 26.8556L36.4433 26.8486L33.5438 22.3614L37.9837 19.4479L37.9777 19.4387C38.2904 19.179 38.4832 18.7812 38.46 18.3425C38.4367 17.9027 38.2021 17.5279 37.8622 17.3035L37.8682 17.2918L33.0517 14.8264L35.3985 10.171L35.3889 10.166C35.5304 9.78357 35.5006 9.34202 35.2626 8.97365C35.0243 8.60486 34.6346 8.39828 34.2298 8.37498L34.2291 8.36118L28.9695 8.64559L28.689 3.37621L28.6782 3.37678C28.611 2.974 28.366 2.60665 27.9772 2.40781C27.5879 2.20813 27.1484 2.22597 26.7858 2.40932L26.7785 2.39807L22.3647 5.2945L19.5072 0.87237L19.4985 0.878068C19.2407 0.562997 18.846 0.368638 18.4107 0.392038C17.9749 0.415709 17.603 0.652068 17.3802 0.993495L17.3682 0.987709L15.0232 5.63957L10.2508 3.19681L10.2459 3.20655C9.86639 3.06394 9.42823 3.09393 9.06268 3.33381C8.69673 3.57395 8.49173 3.96661 8.46861 4.37462L8.45492 4.3753L8.73966 9.7214L3.45048 10.0074L3.45119 10.0176C3.05149 10.0853 2.68697 10.3322 2.48965 10.724C2.29218 11.1164 2.3092 11.5592 2.49157 11.9244L2.4804 11.9317L5.37964 16.4184L0.940178 19.3317L0.946102 19.3408C0.633449 19.6006 0.440581 19.9984 0.463801 20.4371C0.487146 20.8769 0.722373 21.2519 1.06159 21.4761L1.05558 21.4878L5.87211 23.9532L3.5253 28.6086L3.53496 28.6136C3.39345 28.996 3.42321 29.4376 3.66125 29.8059C3.89955 30.1747 4.28919 30.3813 4.69366 30.4049L4.69447 30.418L9.95408 30.1336L10.2349 35.4034L10.2457 35.4028C10.3128 35.8056 10.5578 36.1729 10.9466 36.3718C11.3359 36.5715 11.7757 36.554 12.138 36.3703L12.1453 36.3815L16.5587 33.4854L19.4165 37.9079L19.4252 37.9022C19.683 38.2173 20.0776 38.4116 20.513 38.3882C20.9488 38.3646 21.3207 38.1282 21.5435 37.7868L21.5551 37.7928L23.9001 33.141L28.6725 35.5837L28.6774 35.574C29.0569 35.7166 29.4955 35.6863 29.861 35.4465ZM9.82185 18.3201C8.68877 17.7403 8.07153 16.9455 7.79969 16.1038L8.97983 15.4724C9.17453 16.1173 9.62854 16.818 10.4367 17.2312C11.131 17.5868 11.613 17.4432 11.7865 17.0985C12.304 16.0712 8.56816 15.0613 9.68815 12.8387C10.1837 11.856 11.4381 11.4725 12.8181 12.1792C13.7496 12.6557 14.3796 13.3354 14.6877 14.1722L13.5199 14.7552C13.268 14.0701 12.7385 13.5423 12.1415 13.2362C11.6139 12.9665 11.199 13.0435 11.0202 13.3982C10.5517 14.3282 14.2338 15.4225 13.123 17.6267C12.5792 18.7069 11.395 19.1262 9.82185 18.3201ZM17.0192 21.871L17.1547 20.6819L14.6416 19.3954L13.7679 20.2067L12.3535 19.4822L17.5888 14.7323L19.1527 15.5332L18.4336 22.5955L17.0192 21.871ZM18.9254 22.8472L21.9029 16.9406L23.16 17.5837L20.7409 22.3833L23.2188 23.6519L22.6607 24.7593L18.9254 22.8472ZM23.5036 25.1907L26.4807 19.2844L30.6287 21.407L30.0708 22.5137L27.1711 21.0299L26.546 22.2697L29.3841 23.7221L28.8262 24.8288L25.9885 23.3761L25.3097 24.7224L28.2096 26.2066L27.6519 27.3137L23.5036 25.1907Z" fill="black"/>
</svg>
