<?xml version="1.0" standalone="no"?>
<!DOCTYPE svg PUBLIC "-//W3C//DTD SVG 20010904//EN"
 "http://www.w3.org/TR/2001/REC-SVG-20010904/DTD/svg10.dtd">
<svg version="1.0" xmlns="http://www.w3.org/2000/svg"
 width="32.000000pt" height="32.000000pt" viewBox="0 0 32.000000 32.000000"
 preserveAspectRatio="xMidYMid meet">

<g transform="translate(0.000000,32.000000) scale(0.100000,-0.100000)"
fill="#000000" stroke="none">
<path d="M200 293 c-48 -8 -53 -12 -36 -29 9 -8 16 -20 16 -25 0 -5 9 -9 20
-9 21 0 28 -16 9 -22 -9 -3 -9 -10 0 -26 7 -13 15 -21 19 -18 13 7 53 -14 47
-24 -4 -7 -12 -7 -24 0 -10 5 -21 6 -25 3 -10 -10 -7 -63 4 -63 23 0 58 24 73
50 21 34 24 149 5 155 -26 7 -84 12 -108 8z m95 -73 c-3 -5 -12 -10 -20 -10
-8 0 -17 5 -20 10 -4 6 5 10 20 10 15 0 24 -4 20 -10z"/>
<path d="M84 229 c-28 -11 -59 -28 -69 -38 -16 -19 -15 -22 17 -83 27 -51 40
-65 68 -74 47 -15 71 -5 94 40 19 38 19 39 -4 95 -24 58 -38 81 -49 80 -3 0
-29 -9 -57 -20z m76 -47 c0 -4 -9 -13 -20 -20 -16 -10 -20 -10 -20 2 0 8 6 17
13 19 19 8 27 8 27 -1z m-70 -41 c0 -5 -9 -11 -20 -14 -20 -5 -26 3 -13 16 9
10 33 8 33 -2z m80 -30 c0 -14 -41 -41 -62 -41 -10 0 -18 5 -18 10 0 6 8 10
19 10 10 0 24 7 31 15 14 17 30 20 30 6z"/>
</g>
</svg>
